<?xml version="1.0" encoding="utf-8"?>
<!-- Generator: Adobe Illustrator 28.0.0, SVG Export Plug-In . SVG Version: 6.00 Build 0)  -->
<svg version="1.1" xmlns="http://www.w3.org/2000/svg" xmlns:xlink="http://www.w3.org/1999/xlink" x="0px" y="0px"
	 viewBox="0 0 960 1080" style="background:transparent;" xml:space="preserve">
<style type="text/css">
	.st0{fill:#0F0F0F;}
	.st1{fill:#FFFFFF;}
	.st2{fill:#0E5C87;}
	.st3{fill:#D1DADC;}
	.st4{fill:#90A8AC;}
	.st5{fill:none;stroke:#FFFFFF;stroke-width:0.5;stroke-miterlimit:10;}
	.st6{fill:none;stroke:#0F0F0F;stroke-width:0.5;stroke-miterlimit:10;}
	.st7{fill:none;stroke:#FFFFFF;stroke-miterlimit:10;}
	.st8{fill:none;stroke:#0F0F0F;stroke-miterlimit:10;}
</style>
<g>
	<g>
		<path class="st1" d="M501.7,535.1L501.7,535.1l-12.6,37.1h0.2l0,0l-31.6,93.2h68.1l29.8-84.5c0,0,0,0,0,0
			c2.1-5.2,7.1-8.6,12.7-8.6l-0.3,0l0,0l61.2,0l3.6,0c6.4,0,12.3,3.5,15.4,9.1l46,84.1h73.5l-50.9-93.2l19.1,0c1,0,1.9,0,2.9-0.1
			c37.5-3,70-28.3,82.3-64.4l-280.9,0C522.6,507.7,507.3,518.8,501.7,535.1z"/>
		<path class="st1" d="M784.5,414.6l-241.8,0l-21.9,64.5l309.9,0C841.5,447.4,818,414.6,784.5,414.6z"/>
	</g>
	<g>
		<path class="st1" d="M262.4,479.1h229.8l21.9-64.5l-240.4,0c-38.1,0-76.2,24-89.3,59.8c0,0-31.3,77.3,35,83.9
			c0,0,149.3,21.2,164.1,23.4c1.4,0.2,2.8,0.8,3.9,1.7c1.6,1.4,2.9,3.9,1.2,8c-0.5,1.2-1.2,2.3-2.2,3.2c-2.4,2.2-8.2,6.3-18.8,6.3
			H141.5l-21.9,64.5h243.8c38.1,0,72.5-24.1,85.5-59.9c0,0,39.2-80-35.8-87.3l-160.9-20.1c-4-0.5-6.5-4.6-5.2-8.4
			C249.5,483.4,255.6,479.1,262.4,479.1z"/>
	</g>
</g>
<g id="Capa_1">
</g>
</svg>
