<svg width="4247" height="281" viewBox="0 0 4247 281" fill="none" xmlns="http://www.w3.org/2000/svg">
<path d="M2196.43 134.519L2147.19 279.695H2223.33L2256.83 185.28C2259.37 179.696 2264.95 175.635 2271.04 175.635H2270.54H2338.56H2342.62C2349.72 175.635 2356.32 179.696 2359.88 185.787L2411.14 279.695H2493.38L2436.52 175.635H2457.84C2458.86 175.635 2459.87 175.635 2460.89 175.635C2502.51 172.082 2539.06 144.163 2552.77 103.555H2239.06C2219.78 104.062 2202.52 116.245 2196.43 134.519Z" fill="black"/>
<path d="M2511.66 0H2241.61L2217.24 72.0802H2562.92C2575.61 36.5476 2549.22 0 2511.66 0Z" fill="black"/>
<path d="M159.389 72.0802H416.239L440.605 0H172.079C129.44 0 86.8012 26.903 72.5881 67.0041C72.5881 67.0041 37.5631 153.298 111.674 160.404C111.674 160.404 278.17 184.262 294.921 186.292C296.444 186.292 297.967 187.308 299.489 188.323C301.012 189.846 302.535 192.891 301.012 197.46C300.505 198.983 299.489 199.998 298.474 201.013C295.936 203.551 289.337 208.12 277.662 208.12H24.3652L0 280.2H272.078C314.718 280.2 352.788 253.297 367.509 213.196C367.509 213.196 411.163 123.857 327.408 115.735L147.714 93.3999C143.146 92.8923 140.608 88.3238 142.131 84.263C145.176 76.6488 151.775 72.0802 159.389 72.0802Z" fill="black"/>
<path d="M1206.59 0H936.541C890.856 0 850.755 28.9335 836.034 72.0802L765.477 280.2H838.065H1111.16L1135.52 208.12H865.476L876.135 176.14H1145.17L1170.04 104.06H901.008L909.13 81.7249C911.668 76.1412 917.252 72.0802 923.343 72.0802H922.835H1180.7L1206.59 0Z" fill="black"/>
<path d="M3385.24 0L3290.32 280.2H3366.46L3461.38 0H3385.24Z" fill="black"/>
<path d="M3349.2 0H3079.15C3033.47 0 2993.37 28.9335 2978.64 72.0802L2932.45 208.12C2920.78 242.13 2945.14 277.662 2980.68 280.2H3253.77L3278.13 208.12H3008.09L3052.25 81.7249C3054.79 76.1412 3060.37 72.0802 3066.46 72.0802H3065.95H3323.82L3349.2 0Z" fill="black"/>
<path d="M2893.36 0C2892.86 0 2698.44 0 2698.44 0C2652.76 0 2612.66 28.9335 2597.94 72.0802L2527.38 280.2H2603.52L2638.55 176.14H2833.47L2798.44 280.2H2874.58L2944.63 71.5727C2956.31 36.0401 2929.91 0 2893.36 0ZM2663.93 104.06L2672.05 81.7249C2674.59 76.1412 2680.17 72.0802 2686.26 72.0802H2685.75H2868.49L2857.83 104.06H2663.93Z" fill="black"/>
<path d="M2005.06 0H1704.04C1658.36 0 1618.26 28.9335 1603.54 72.0802L1532.98 280.2H1609.12L1677.65 81.7249C1680.19 76.1412 1685.77 72.0802 1691.86 72.0802H1691.35H1790.85L1720.29 280.2H1796.43L1866.99 72.0802H1978.66L1908.1 280.2H1984.24L2055.31 74.1108C2067.49 38.5782 2042.11 1.52283 2005.06 0Z" fill="black"/>
<path d="M3767.47 0H3573.56C3527.88 0 3487.77 28.9335 3473.05 72.0802L3438.03 176.14L3403 280.2H3479.15L3514.17 176.14L3547.67 81.7249C3550.21 76.1412 3555.79 72.0802 3561.89 72.0802H3561.38H3743.61L3673.05 280.2H3749.19L3819.75 72.0802C3830.92 36.5476 3804.52 0 3767.47 0Z" fill="black"/>
<path d="M750.237 0H556.33C510.645 0 470.544 28.9335 455.823 72.0802L385.266 280.2H461.407L494.909 185.785C497.447 180.201 503.031 176.14 509.122 176.14H508.615C508.615 176.14 697.953 176.14 698.968 176.14C740.592 172.587 777.14 144.669 790.845 104.06L802.013 72.0802C813.688 36.5476 787.292 0 750.237 0ZM521.812 104.06L529.934 81.7249C532.472 76.1412 538.056 72.0802 544.147 72.0802H543.64H725.364L714.704 104.06H521.812Z" fill="black"/>
<path d="M1508.1 0H1314.2C1268.51 0 1228.41 28.9335 1213.69 72.0802L1143.13 280.2H1219.27L1252.78 185.785C1255.31 180.201 1260.9 176.14 1266.99 176.14H1266.48H1339.58H1339.07C1346.18 176.14 1352.78 180.201 1356.33 186.292L1407.6 280.2H1489.83L1432.98 176.14C1432.98 176.14 1456.33 176.14 1457.34 176.14C1498.97 172.587 1535.51 144.669 1549.22 104.06L1560.39 72.0802H1559.88C1572.06 36.5476 1545.67 0 1508.1 0ZM1280.19 104.06L1288.31 81.7249C1290.85 76.1412 1296.43 72.0802 1302.52 72.0802H1302.01H1483.74L1473.08 104.06H1280.19Z" fill="black"/>
<path d="M4219.26 245.178C4223.82 243.655 4226.36 240.609 4226.36 236.041C4226.36 228.934 4220.78 225.381 4209.61 225.381H4195.91V262.436H4202.51V248.223H4207.58C4212.15 248.223 4215.2 248.731 4216.72 249.746C4218.24 250.761 4218.75 253.807 4218.75 258.375C4218.75 259.898 4219.26 261.421 4219.76 262.436H4226.87C4225.86 260.913 4225.86 258.883 4225.86 257.36C4225.86 250.761 4223.82 247.208 4219.26 245.178ZM4209.1 242.64H4202.51V230.965H4209.1C4210.63 230.965 4211.64 230.965 4212.66 230.965C4213.67 230.965 4214.69 231.472 4215.7 231.472C4216.72 231.98 4217.73 232.487 4218.24 232.995C4218.75 234.01 4219.26 235.026 4219.26 236.041C4219.26 240.609 4216.21 242.64 4209.1 242.64Z" fill="black"/>
<path d="M4235.5 218.78C4228.39 211.673 4220.27 208.12 4210.11 208.12C4200.47 208.12 4191.84 211.673 4184.73 218.78C4177.63 225.886 4174.07 234.516 4174.07 244.16C4174.07 253.805 4177.63 262.434 4184.73 269.541C4191.84 276.647 4199.96 280.2 4210.11 280.2C4219.76 280.2 4228.39 276.647 4235.5 269.541C4242.6 262.434 4246.15 254.312 4246.15 244.16C4246.15 234.008 4242.09 225.886 4235.5 218.78ZM4231.43 265.48C4225.34 271.571 4218.24 274.617 4210.11 274.617C4201.99 274.617 4194.38 271.571 4188.8 265.48C4182.7 259.389 4179.66 252.282 4179.66 244.16C4179.66 236.038 4182.7 228.424 4188.8 222.841C4194.89 216.749 4201.99 213.704 4210.11 213.704C4218.24 213.704 4225.85 216.749 4231.43 222.841C4237.53 228.932 4240.57 236.038 4240.57 244.16C4240.06 252.79 4237.53 259.896 4231.43 265.48Z" fill="black"/>
<path d="M4225.34 0H3955.29C3909.61 0 3869.51 28.9335 3854.79 72.0802L3808.59 208.12C3796.92 242.13 3821.28 277.662 3856.82 280.2H4054.28C4099.96 280.2 4140.06 251.266 4154.78 208.12L4189.81 104.06H3994.38L3969 176.14H4089.3L4078.64 208.12H3884.73L3928.9 81.7249C3931.43 76.1412 3937.02 72.0802 3943.11 72.0802H3942.6H4200.47L4225.34 0Z" fill="black"/>
</svg>


