<?xml version="1.0" encoding="UTF-8" standalone="no"?>
<svg xmlns:dc="http://purl.org/dc/elements/1.1/" xmlns:cc="http://creativecommons.org/ns#" xmlns:rdf="http://www.w3.org/1999/02/22-rdf-syntax-ns#" xmlns:svg="http://www.w3.org/2000/svg" xmlns="http://www.w3.org/2000/svg" width="672.34369" height="58.693668" viewBox="0 0 114.37799 9.9779236" preserveAspectRatio="none" version="1.1" id="svg4">
  <metadata id="metadata10">
    <rdf:RDF>
      <cc:Work rdf:about="">
        <dc:format>image/svg+xml</dc:format>
        <dc:type rdf:resource="http://purl.org/dc/dcmitype/StillImage" />
        <dc:title></dc:title>
      </cc:Work>
    </rdf:RDF>
  </metadata>
  <defs id="defs8" />
  <path d="m 1.3022175,9.6957283 c 0.7998675,-0.0037 1.3133397,-0.03337 1.5506121,-0.0862 0.2307845,-0.05561 0.3688844,-0.207613 0.4115193,-0.456935 0.044488,-0.248394 0.055611,-2.5284335 0.038001,-6.8391906 L 3.2504462,0.36610391 2.17994,0.37259181 C 1.5858322,0.43283671 1.1344585,0.63581581 0.82118487,0.97689491 0.47269107,1.3689504 0.17888113,1.7526643 0.08619661,2.6442894 H 0.01482953 L 0,0.10380671 4.1847062,0.10195301 8.4593164,0.08248921 8.4713653,2.6442894 H 8.4398526 C 8.2813621,1.6970536 8.1997997,1.6488576 8.0830172,1.3874873 7.766963,0.69420711 7.1802699,0.35127431 6.3220113,0.35498171 l -1.1984109,0.00463 -0.021317,2.19940369 0.01483,3.1327369 c 0.00834,2.2772588 0.022244,3.4775238 0.036147,3.5989398 0.01761,0.123271 0.2113207,0.215028 0.5857662,0.283615 0.3707381,0.06581 0.8211849,0.100099 1.3392914,0.09546 l 0.074148,0.160344 -5.9243947,0.02595 0.074148,-0.160344 m 9.9463457,0.1547942 -1.8879844,-0.03522 -1.9954977,0.040781 v -0.196491 c 0.8193312,-0.0056 1.2586558,-0.08434 1.3049981,-0.239126 0.019464,-0.05468 0.03244,-0.268786 0.038927,-0.646938 0.00463,-0.3763 0.00556,-0.89904 0.00185,-1.565442 L 8.7043742,5.6611706 8.7006668,4.7000321 8.6988132,4.3969537 8.6978863,4.168023 8.6969595,3.9780197 8.6978863,3.8343587 C 8.6941789,3.521085 8.6774957,3.3347891 8.6432024,3.2736173 8.592226,3.1243952 8.1584624,3.0511745 7.3363507,3.0548818 V 2.844488 l 2.0575964,0.03244 1.8268119,-0.049123 0.0019,0.209467 C 10.525671,3.040052 10.13547,3.112346 10.0502,3.2485927 10.00478,3.37279 9.9843937,4.3144647 9.9927347,6.0736169 l 3.1559073,-0.014829 -0.0056,-0.5913272 -9.26e-4,-0.4662032 c -0.0037,-1.0232378 -0.02781,-1.6080771 -0.07879,-1.7535918 -0.0519,-0.1473684 -0.443959,-0.2150281 -1.184509,-0.2141013 l 9.27e-4,-0.2085402 1.792519,0.03522 2.103939,-0.05283 9.26e-4,0.209467 c -0.814696,0.00278 -1.244753,0.075074 -1.289241,0.2141012 -0.04449,0.1381 -0.06488,0.9203573 -0.05561,2.3449185 l 0.0019,0.6441574 c 0.0074,2.007547 0.03707,3.075272 0.0862,3.208738 0.05098,0.130685 0.477326,0.194638 1.283681,0.19093 l 0.0019,0.210394 -2.040914,-0.03337 -1.85369,0.04078 -0.0028,-0.202052 c 0.705329,-0.0019 1.094604,-0.07044 1.169678,-0.211321 0.05654,-0.09732 0.08064,-1.109434 0.07044,-3.0298571 l -3.1549811,0.012976 c 0.00741,1.8953983 0.039855,2.8991723 0.08527,3.0085393 0.03059,0.07785 0.190003,0.131612 0.481033,0.164979 0.09732,0.0074 0.330883,0.02595 0.688646,0.06025 z m 6.17733,-0.439325 c 0.04727,-0.146441 0.06859,-0.892552 0.0621,-2.235551 l -0.0046,-1.5580264 c -0.0065,-1.455147 -0.03433,-2.2540876 -0.08067,-2.3968218 -0.04449,-0.1418073 -0.483813,-0.2122475 -1.311486,-0.209467 l -0.0028,-0.1659053 c 0.392055,-0.00278 0.950943,-0.00556 1.675736,-0.00834 0.723866,-0.00278 1.246607,-0.00649 1.57749,-0.00649 l 3.246739,-0.013903 0.01483,2.7379008 H 22.424372 C 22.307589,4.4877846 22.080512,3.7926506 21.742214,3.472889 21.406696,3.1522006 20.774587,2.9918564 19.846815,2.9964906 c -0.195564,9.269e-4 -0.390202,0.00185 -0.578351,0.00278 -0.251175,0.015756 -0.395763,0.058391 -0.428203,0.1362463 -0.05468,0.1130751 -0.07878,1.0816284 -0.07229,2.9065866 l 0.422642,0.00927 c 0.585766,-0.00278 0.991724,-0.1353194 1.21046,-0.3976166 0.217808,-0.2595167 0.328103,-0.7563057 0.324395,-1.4810987 H 20.8923 l 0.01854,4.0540211 h -0.167759 c -9.26e-4,-0.742403 -0.107514,-1.26329 -0.312346,-1.5626611 -0.202053,-0.3021516 -0.564449,-0.44952 -1.071434,-0.4476663 l -0.588546,0.00185 c 0.0083,1.9853027 0.03707,3.0641507 0.08527,3.2393237 0.02966,0.111222 0.454154,0.165906 1.279046,0.162198 0.889771,-0.0046 1.505197,-0.1761 1.85091,-0.51996 0.376299,-0.371665 0.644157,-1.099238 0.798941,-2.189208 h 0.167758 l 0.0083,1.866666 0.0139,1.058457 -3.835286,-0.0241 -3.019662,0.04449 v -0.218736 c 0.823966,-0.0046 1.257729,-0.07971 1.305925,-0.22615 z m 10.046446,-0.178881 c 0.06581,-0.204833 0.09361,-1.24846 0.08712,-3.13181 L 27.547416,3.922409 c -0.0056,-2.0390595 -0.04263,-3.15590799 -0.110295,-3.35610659 -0.0621,-0.2001985 -0.676597,-0.2965904 -1.835153,-0.2928831 l -0.0028,-0.233565 c 0.547766,-0.00278 1.328169,-0.00649 2.342138,-0.011122 1.014896,-0.00556 1.749884,-0.00741 2.208672,-0.00834 l 4.55081,-0.020391 0.01854,3.83157819 -0.251175,0.00185 C 34.304118,2.3384305 33.987137,1.3689504 33.517226,0.91757681 33.042681,0.46620311 32.15569,0.24468711 30.858107,0.24932141 c -0.272492,0.00185 -0.540351,0.00371 -0.805428,0.00463 -0.354055,0.021317 -0.554254,0.087123 -0.603377,0.1955643 -0.07693,0.15571 -0.109367,1.51168459 -0.09732,4.06514319 l 0.589473,0.010195 c 0.823039,-0.00185 1.385634,-0.1890765 1.693346,-0.5533266 0.31142,-0.365177 0.458789,-1.0593841 0.456008,-2.0733528 l 0.233565,-9.268e-4 0.0241,5.6760001 -0.233565,0.0019 C 32.110275,6.5351857 31.965687,5.8048316 31.680219,5.3858976 31.39197,4.9651099 30.893327,4.7574965 30.175022,4.7602771 l -0.823965,0.00185 c 0.0139,2.7786816 0.05283,4.2885126 0.122343,4.5331996 0.04078,0.158491 0.639524,0.231712 1.791592,0.228931 1.2429,-0.0056 2.105793,-0.248394 2.592386,-0.729427 0.527375,-0.519033 0.89904,-1.53949 1.114995,-3.0613697 l 0.237273,-9.269e-4 0.01112,2.6118496 0.02039,1.483879 -5.369214,-0.03615 -4.228268,0.06395 9.27e-4,-0.30864 c 1.148361,-0.0037 1.757298,-0.108441 1.827738,-0.315127 z M 41.3702,6.8331226 c 0.0019,0.9833827 -0.225223,1.7471037 -0.691426,2.2911617 -0.463423,0.546838 -1.112215,0.819331 -1.949156,0.825819 -0.955577,0.0019 -1.724859,-0.314201 -2.305064,-0.950943 -0.578351,-0.638597 -0.872161,-1.495002 -0.877722,-2.5738496 -0.0028,-1.1196291 0.291956,-2.0344253 0.887917,-2.7480961 0.594108,-0.7136708 1.353194,-1.0705063 2.261503,-1.0732868 0.341079,-0.00278 0.64045,0.056538 0.891625,0.1751738 0.257663,0.1214167 0.509765,0.3197616 0.759086,0.6005957 l 0.09825,-0.00185 c 0.09639,-0.1390268 0.184442,-0.2771267 0.266004,-0.4161535 0.07785,-0.1418074 0.147369,-0.2956637 0.210394,-0.4634227 l 0.157564,9.269e-4 0.01298,3.311618 -0.189077,0.00185 C 40.674139,3.7921434 39.949347,2.7846626 38.738887,2.7911505 c -0.60245,0.00371 -1.063092,0.2956637 -1.375439,0.8823567 -0.31142,0.586693 -0.465276,1.4523665 -0.457861,2.5998009 0.0065,2.3161862 0.671963,3.4719622 1.989936,3.4682552 0.6905,-0.0046 1.241973,-0.263224 1.663688,-0.772062 0.418934,-0.511619 0.626547,-1.202119 0.62284,-2.072426 V 6.8340493 L 41.3702,6.8331225 m 2.208672,-3.1966811 c -0.313273,0.5681561 -0.466203,1.3986094 -0.465276,2.49136 0.0065,1.1483608 0.169613,2.0381328 0.49957,2.6739488 0.325322,0.633962 0.772062,0.950943 1.325388,0.949089 1.21046,-0.0065 1.811983,-1.087189 1.805495,-3.2421044 -0.0056,-1.203045 -0.165905,-2.1280366 -0.479179,-2.7694135 -0.309566,-0.6395232 -0.745184,-0.9602116 -1.304998,-0.9574311 -0.60523,9.268e-4 -1.065872,0.287322 -1.381,0.8545512 z m 0.07785,6.0411768 C 43.258184,9.4959573 42.905056,9.2392213 42.605685,8.9092643 42.303533,8.5811613 42.069042,8.1937393 41.897575,7.7442193 41.728889,7.2974803 41.64362,6.8368381 41.641766,6.364147 c -9.27e-4,-0.5431313 0.09361,-1.0593841 0.287322,-1.5469047 0.191857,-0.4875206 0.464349,-0.9129425 0.819331,-1.275339 0.616352,-0.6293279 1.361536,-0.9472358 2.234624,-0.9490895 0.69328,-0.00371 1.33095,0.2289307 1.90374,0.7016218 0.419861,0.3447864 0.744257,0.7776231 0.98431,1.299437 0.234492,0.5218139 0.352201,1.0769942 0.353128,1.6692483 0.0083,1.0213834 -0.318835,1.8907644 -0.975041,2.6053624 -0.65528,0.716451 -1.44866,1.076067 -2.372724,1.081628 -0.411519,0 -0.815624,-0.08898 -1.219729,-0.272493 z m 3.821198,-0.0083 c 0.57001,-0.08805 0.945382,-0.251175 1.124263,-0.488447 0.160344,-0.207614 0.24098,-0.591328 0.238199,-1.141874 l -0.0037,-0.347567 -0.101026,-4.0039711 C 48.602188,3.4028838 48.43999,3.2147342 48.243499,3.1248302 48.047008,3.035853 47.74393,2.9904376 47.333337,2.9932182 l -0.0019,-0.1696127 1.138166,0.01761 1.129825,-0.00371 3.77504,4.9048651 -0.0139,-2.8963915 C 53.358758,4.1434331 53.267927,3.6670346 53.096461,3.4158596 52.883286,3.1183423 52.459718,2.9709739 51.825756,2.9728276 V 2.8041417 l 1.503343,0.016683 1.494074,-0.00741 9.27e-4,0.1464415 c -0.585766,0.00278 -0.959285,0.1529295 -1.127044,0.4532273 -0.116782,0.2094671 -0.171466,0.6673286 -0.169612,1.3698773 l 0.0093,2.40331 c 0.0028,0.34664 0.01576,0.833233 0.03893,1.452366 0.02317,0.619133 0.03707,1.067726 0.038,1.339292 H 53.403246 C 53.202121,9.6238693 52.993581,9.3004003 52.791529,9.0093703 52.671966,8.8304893 52.369814,8.4245313 51.88322,7.7952033 l -2.968685,-3.8769936 0.08898,3.8241636 c 0.0074,0.724793 0.111222,1.219728 0.315128,1.490367 0.20854,0.272492 0.626547,0.403178 1.250314,0.401324 l 0.0019,0.188149 -1.316121,-0.01483 c -0.202979,9.27e-4 -0.515326,0.01112 -0.940748,0.03059 -0.426349,0.01854 -0.704402,0.02688 -0.836014,0.02781 z m 8.546347,-6.0337768 c -0.312347,0.5709366 -0.46713,1.3995363 -0.463423,2.49136 0.0074,1.1483608 0.168686,2.0409128 0.496789,2.6739488 0.32625,0.636742 0.766502,0.952797 1.326316,0.950943 1.21324,-0.0074 1.814763,-1.08719 1.803641,-3.2448853 -0.0056,-1.2030451 -0.164979,-2.1243293 -0.476399,-2.766633 -0.313273,-0.6432306 -0.74611,-0.9620654 -1.305925,-0.958358 -0.604303,9.269e-4 -1.067725,0.2882489 -1.380999,0.8536245 z m 0.07785,6.0430308 C 55.70172,9.4950572 55.351372,9.2392472 55.049221,8.9092912 54.747996,8.5784072 54.515358,8.1928392 54.343892,7.7442462 54.175206,7.2965802 54.089936,6.8368648 54.088082,6.3632469 54.086182,5.8219693 54.180772,5.3047896 54.373551,4.817269 54.566335,4.3306753 54.8379,3.9033997 55.192882,3.5400763 55.811088,2.9126021 56.553491,2.595621 57.424725,2.5919137 c 0.697915,-0.00185 1.331877,0.2317113 1.904667,0.7025486 0.421715,0.3438596 0.750745,0.7776232 0.982456,1.2985102 0.238199,0.5227407 0.354055,1.0769942 0.357762,1.6692483 0.0065,1.0232374 -0.322542,1.8907644 -0.976895,2.6072154 -0.652499,0.715525 -1.444951,1.076994 -2.369016,1.080702 -0.411519,9.27e-4 -0.820258,-0.08805 -1.221582,-0.271566 z m 5.443455,-6.4653672 0.10566,4.4470032 c 0.0046,0.788746 0.0862,1.312413 0.248395,1.568222 0.194637,0.305859 0.603376,0.458789 1.224362,0.456935 l -0.0019,0.15571 -0.895332,-0.0065 c -0.238199,-9.27e-4 -0.583913,0.01298 -1.038067,0.03615 -0.450446,0.02224 -0.785964,0.03244 -1.000992,0.03429 l 9.26e-4,-0.166832 c 0.476399,-9.27e-4 0.81377,-0.09547 1.005627,-0.279907 0.192784,-0.184442 0.287322,-0.494009 0.283615,-0.924065 l 9.27e-4,-0.04356 -0.0917,-4.0039948 C 61.385237,3.9296225 61.303675,3.5477622 61.144258,3.34571 60.982987,3.1408772 60.654883,3.0379974 60.158094,3.0417047 V 2.8637505 l 1.091824,0.00556 1.638662,-0.00741 1.605296,4.9975495 h 0.08249 l 1.519099,-5.0123791 c 0.08712,0 0.215028,0 0.38186,-0.00185 0.168686,0 0.285469,-9.268e-4 0.354982,-9.268e-4 l 0.932406,-0.00463 1.149288,-0.00556 v 0.1890764 c -0.794306,0.00463 -1.207679,0.060245 -1.242899,0.1686859 -0.03244,0.107514 -0.04912,0.4411783 -0.04727,0.9963586 l 0.0019,0.2521019 0.01761,3.7398201 c -0.0028,0.237273 0.0028,0.492155 0.0037,0.767428 0,0.277127 0.01298,0.445813 0.03893,0.506985 0.05932,0.14088 0.476399,0.209467 1.256803,0.203906 v 0.167759 l -1.95379,-0.01298 -2.004766,0.0083 V 9.675104 c 0.686792,-0.0037 1.09275,-0.02502 1.205825,-0.06859 0.113075,-0.04078 0.171467,-0.200198 0.169613,-0.481032 l -0.02132,-5.8928825 -0.166832,0.00185 -1.001919,3.2865932 c -0.476438,1.5599196 -0.786004,2.6712066 -0.926885,3.3357546 l -0.366104,0.0028 -2.149354,-6.647334 z m 8.972696,6.2082102 c 0.02873,-0.08527 0.0482,-0.442105 0.05932,-1.073286 0.01298,-0.628401 0.01576,-1.5255876 0.01019,-2.6897052 -0.0093,-1.4366101 -0.03615,-2.233697 -0.0899,-2.3931144 -0.05376,-0.1603442 -0.486594,-0.2381992 -1.301291,-0.233565 l -0.0019,-0.1900032 c 0.389275,-0.00185 0.879576,9.268e-4 1.469049,0.010195 0.58762,0.00741 0.884211,0.012976 0.894406,0.012049 0.06766,0 0.316981,-0.00741 0.739623,-0.018537 0.426348,-0.012976 0.744256,-0.020391 0.95187,-0.020391 v 0.1890765 c -0.822112,0.00371 -1.257729,0.082489 -1.309633,0.239126 -0.05376,0.1594174 -0.07507,1.1492881 -0.06581,2.9751732 0.0093,1.9778874 0.04171,3.0409794 0.09917,3.1911284 0.05746,0.150149 0.491228,0.220589 1.307778,0.218735 v 0.20854 l -2.028864,-0.03337 -2.02701,0.04264 -0.0019,-0.202053 c 0.819331,-0.0019 1.249387,-0.07878 1.294803,-0.232638 z m 7.698654,-0.297107 c -0.46713,0.545911 -1.114995,0.820258 -1.950082,0.825819 -0.956504,0.0028 -1.722079,-0.312347 -2.304137,-0.950944 -0.581132,-0.637669 -0.873089,-1.496855 -0.87865,-2.5729219 -0.0037,-1.1224096 0.29103,-2.0353521 0.886064,-2.7499498 0.595035,-0.7118171 1.350414,-1.0695794 2.264283,-1.0723599 0.342006,-0.00185 0.638597,0.056538 0.894406,0.1751737 0.256736,0.1195631 0.506057,0.3188348 0.758159,0.5996689 h 0.09732 c 0.09547,-0.1390268 0.182589,-0.2799073 0.264151,-0.4198609 0.07693,-0.1399536 0.151076,-0.2919563 0.210394,-0.4606421 l 0.15571,0.00185 0.01576,3.3106912 -0.188149,0.00185 c -0.23078,-2.0205491 -0.952792,-3.0271031 -2.165106,-3.0224688 -0.608937,0.00371 -1.063091,0.2965904 -1.375438,0.8814298 -0.312347,0.5885467 -0.466203,1.4532933 -0.459715,2.6007277 0.0083,2.3161862 0.676597,3.4728892 1.987156,3.4673282 0.694207,-0.0019 1.24568,-0.259517 1.666467,-0.770209 0.417081,-0.512545 0.626548,-1.201191 0.623767,-2.072425 v -0.062099 l 0.186296,-0.00185 c 0.0056,0.9843099 -0.222443,1.7461769 -0.688646,2.2911619 z m 4.398715,0.5696 c 0.802648,-0.0028 1.318901,-0.03337 1.554319,-0.08527 0.230785,-0.05561 0.372592,-0.205759 0.412447,-0.456935 0.04541,-0.249321 0.05654,-2.5284333 0.03707,-6.8382636 l -0.05283,-1.94544819 -1.067726,0.00278 c -0.594107,0.061172 -1.046408,0.263224 -1.358755,0.6061568 C 81.792595,1.3680568 81.546981,1.5024494 81.405174,2.702714 h -0.07229 l -0.0139,-2.59887399 4.182853,-0.00556 4.270903,-0.01761 0.0139,2.62204519 H 89.75883 C 89.638353,1.7072489 89.516937,1.6460771 89.3983,1.3847067 89.083173,0.69235341 88.497407,0.34942061 87.638221,0.35405491 l -1.199337,0.00463 -0.01946,2.19940369 0.01483,3.1336637 c 0.0093,2.2781858 0.02224,3.4756698 0.038,3.5970868 0.01668,0.12327 0.20854,0.216881 0.582059,0.282687 0.376299,0.06766 0.823038,0.101027 1.341145,0.09639 l 0.07415,0.161271 -5.921614,0.02688 0.06766,-0.162198 m 7.437933,-0.272493 c 0.02781,-0.08156 0.04727,-0.440251 0.05746,-1.070506 0.01112,-0.631181 0.01668,-1.5292945 0.0102,-2.6906315 -0.0074,-1.4347564 -0.03615,-2.2327702 -0.08898,-2.3931144 C 89.977579,3.107712 89.544742,3.0317107 88.728191,3.0335644 V 2.8435611 c 0.390202,0 0.88143,0.00278 1.470904,0.010195 0.587619,0.00927 0.883283,0.012049 0.890698,0.011122 0.06951,9.268e-4 0.316981,-0.00556 0.740549,-0.018537 0.428203,-0.012049 0.74333,-0.020391 0.954651,-0.020391 l -0.0019,0.1890764 c -0.820258,0.00556 -1.256802,0.084343 -1.307779,0.2400529 -0.05654,0.1575637 -0.07415,1.1511418 -0.06673,2.9751732 0.0093,1.9778877 0.04078,3.0409797 0.09825,3.1911277 0.05283,0.148296 0.492155,0.221516 1.306852,0.218736 l 0.0028,0.209467 -2.032571,-0.03337 -2.02423,0.03985 -9.27e-4,-0.199272 c 0.814697,-0.0037 1.244753,-0.08156 1.294803,-0.235419 z m 4.383422,-6.2179213 0.101953,4.4470033 c 0.0046,0.789672 0.08527,1.31334 0.24654,1.571003 0.195565,0.304932 0.606157,0.456934 1.22529,0.454154 v 0.157564 l -0.900894,-0.0083 c -0.234491,0.0019 -0.579278,0.0139 -1.030652,0.03707 -0.454154,0.0241 -0.787818,0.03337 -1.005627,0.03522 v -0.167759 c 0.482887,-0.0019 0.817478,-0.09454 1.005627,-0.279907 0.191857,-0.185369 0.288249,-0.492155 0.286396,-0.924065 l -0.0028,-0.04356 -0.08712,-4.0048979 C 94.273877,3.9226919 94.190461,3.538978 94.031043,3.3359989 93.869772,3.1311661 93.542596,3.03014 93.045807,3.0319937 l 0.0019,-0.1770275 1.090897,0.00463 1.634954,-0.00741 1.606223,5.0012566 0.0862,-0.0019 1.514465,-5.0133063 c 0.0899,0 0.216882,-0.00185 0.384641,-9.268e-4 0.167759,-9.269e-4 0.289175,-0.00185 0.356835,-0.00185 l 0.928698,-0.00463 1.15022,-0.00371 -0.002,0.1872227 c -0.7906,0.00371 -1.20768,0.059318 -1.23919,0.1686858 -0.0362,0.1065872 -0.051,0.4402515 -0.0491,0.9991392 l 0.004,0.2502482 0.013,3.7388935 c 0.002,0.235419 0.003,0.492155 0.005,0.770209 0,0.273419 0.0167,0.441178 0.0454,0.50513 0.0556,0.139027 0.47084,0.207614 1.25495,0.202979 v 0.168686 l -1.953791,-0.0139 -2.007547,0.0065 0.0019,-0.143661 c 0.685865,-0.0028 1.089043,-0.02595 1.204899,-0.06766 0.115855,-0.04263 0.169612,-0.202979 0.167759,-0.482887 L 99.22202,3.226604 h -0.162841 l -1.002847,3.2847666 c -0.474544,1.5626607 -0.783184,2.6748757 -0.925918,3.3366427 l -0.366104,0.0019 -2.151208,-6.6473341 z m 8.956571,6.2077263 c 0.0463,-0.145515 0.0686,-0.891625 0.063,-2.237404 l -0.007,-1.5552466 c -0.004,-1.455147 -0.0315,-2.2568681 -0.0778,-2.3977486 -0.0473,-0.143661 -0.48289,-0.2113207 -1.31334,-0.2085401 v -0.167759 c 0.39112,-0.00371 0.94816,-0.00556 1.67202,-0.00927 0.72572,-0.00185 1.25032,-0.00463 1.5775,-0.00741 l 3.25229,-0.012049 0.009,2.7369739 h -0.17888 c -0.11585,-1.0649451 -0.342,-1.7619327 -0.67845,-2.0816944 -0.33552,-0.3216152 -0.96948,-0.4801058 -1.89818,-0.4754716 -0.19649,9.269e-4 -0.38742,9.269e-4 -0.57835,0.00185 -0.24932,0.015756 -0.39391,0.061172 -0.42635,0.1390267 -0.0547,0.1112215 -0.0797,1.0807016 -0.0723,2.9038061 l 0.41986,0.00927 c 0.58947,-0.00185 0.99172,-0.1353194 1.21139,-0.3957629 0.22058,-0.2613704 0.32717,-0.7581594 0.32624,-1.4801719 l 0.16498,-0.00185 0.0195,4.054948 h -0.16869 c -0.004,-0.74333 -0.10566,-1.26329 -0.31142,-1.5645148 -0.20205,-0.299371 -0.56259,-0.4485931 -1.07236,-0.4467394 l -0.58762,0.00278 c 0.007,1.9843757 0.0371,3.0622967 0.0862,3.2365437 0.0269,0.114002 0.45415,0.166832 1.27997,0.163125 0.88607,-0.0037 1.50334,-0.177955 1.85184,-0.520887 0.3763,-0.368885 0.64045,-1.099239 0.79338,-2.186428 l 0.17054,-9.27e-4 0.008,1.867593 0.0148,1.060311 -3.83529,-0.0278 -3.01873,0.04634 -0.004,-0.220589 c 0.82397,-0.0019 1.26236,-0.07785 1.30778,-0.224297 z m 5.89603,0.538925 -0.0139,-3.1651766 0.15664,-9.268e-4 c 0.24747,0.9741144 0.60986,1.7146634 1.08904,2.2272094 0.47918,0.506984 1.03992,0.762793 1.6813,0.760013 0.43932,-9.27e-4 0.78967,-0.126978 1.05197,-0.376299 0.25766,-0.249322 0.38278,-0.578352 0.38186,-0.981529 -0.002,-0.524595 -0.20298,-0.912943 -0.60709,-1.162264 -0.26878,-0.165906 -0.80728,-0.347567 -1.6192,-0.5422049 -0.81099,-0.1955643 -1.3986,-0.4467394 -1.76286,-0.7525983 -0.41337,-0.3466401 -0.61913,-0.8304533 -0.62284,-1.4440249 9.3e-4,-0.5653756 0.19279,-1.0315787 0.58577,-1.4013899 0.3902,-0.3679576 0.89533,-0.5533266 1.51076,-0.5561072 0.71738,-0.00185 1.35319,0.31142 1.91023,0.9435285 0.15385,-0.1075141 0.27342,-0.2298577 0.36517,-0.3735187 0.089,-0.143661 0.16128,-0.3382985 0.21689,-0.5802051 l 0.10566,-9.268e-4 0.0102,2.7036075 -0.14366,0.00278 c -0.16034,-0.7896721 -0.45879,-1.406951 -0.90275,-1.8453488 -0.44396,-0.4458126 -0.97689,-0.664548 -1.58583,-0.6608406 -0.45323,0.00185 -0.81284,0.1149287 -1.07607,0.3382984 -0.26229,0.2242966 -0.39483,0.5264481 -0.39391,0.9027473 0.003,0.430983 0.20576,0.7563057 0.61079,0.9694801 0.30679,0.1659053 0.8768,0.3308837 1.70633,0.4903011 0.82767,0.1594174 1.43383,0.4031777 1.80827,0.7294272 0.41523,0.3549817 0.62192,0.8656736 0.62562,1.5357826 0.002,0.647865 -0.20483,1.180801 -0.62469,1.599735 -0.41986,0.415227 -0.9565,0.623767 -1.61364,0.629328 -0.7526,0.0019 -1.41993,-0.363324 -1.99735,-1.099239 -0.34201,0.202979 -0.59318,0.573718 -0.74982,1.110361 h -0.10288" id="path2" />
</svg>
